# xmcd
#
# Track frame offsets: 
#        150
#        19071
#        37787
#        65035
#        89925
#        105300
#        125775
#        147323
#        165465
#        183825
#        213825
#        230334
#        243720
#
# Disc length: 3375 seconds
#
# Revision: 2
# Processed by: cddbd v1.5.2PL0 Copyright (c) Steve Scherf et al.
# Submitted via: ExactAudioCopy v0.99pb5
#
DISCID=b30d2d0d
DTITLE=Robert Charels - Metropolitan Blue
DYEAR=1900
DGENRE=Blues
TTITLE0=Fannie Mae
TTITLE1=Eagle Rock Me Baby
TTITLE2=Mr. Losing Streak
TTITLE3=Metropolitan Blue
TTITLE4=Whatcha Tryin' To Hand Me
TTITLE5=Got Away
TTITLE6=Tend To Your Own Business
TTITLE7=Troubles, Troubles, Troubles
TTITLE8=Gypsy Good Time
TTITLE9=Can't Stop My Heart
TTITLE10=Who'll Be There
TTITLE11=Bop All Night Long
TTITLE12=You Can Suit Yourself
EXTD=
EXTT0=
EXTT1=
EXTT2=
EXTT3=
EXTT4=
EXTT5=
EXTT6=
EXTT7=
EXTT8=
EXTT9=
EXTT10=
EXTT11=
EXTT12=
PLAYORDER=
